<?xml version="1.0" encoding="UTF-8"?>
<svg id="Layer_1" xmlns="http://www.w3.org/2000/svg" version="1.1" viewBox="0 0 820 820">
  <!-- Generator: Adobe Illustrator 30.2.1, SVG Export Plug-In . SVG Version: 2.1.1 Build 1)  -->
  <defs>
    <style>
      .st0 {
        fill: #010000;
      }

      .st1 {
        fill: #feb942;
      }

      .st2 {
        fill: #fff;
      }
    </style>
  </defs>
  <path class="st1" d="M362.04,734.14c-80.68-11.47-154.6-54.86-204.96-118.38-87.95-110.91-90.36-265.26-8.96-378.97l62.35,55.71c23,20.56,43.48,42.36,62.05,66.95l58.45,77.4,3.51,38.81,14.72,115.29c5.11,40.05,11.81,78.85,12.45,119.04l.39,24.14Z"/>
  <path class="st2" d="M249.89,146.03l13.79,16.35,62.24,67.58,11.28,12.03,15.53,16.39,24.64,25.32c3.46,3.55,7.93,8.28,11.95,10.83,12.6,1.56,22.72,6.3,35.3,8.71l12.66-9.02c-19.67-9.52-38.21-18.99-56.51-29.9-7.8-4.65-14.83-9.67-22.21-14.74-6.14-4.22-9.81-10.12-7.77-17.74l3.14-11.79c-15.72-9.4-31.36-6.93-43.67-23.41-3.62-4.84-6.8-12.1-5.89-18.37,2.64-18.21,19.82-30.13,37.49-29.4,10.33.42,17.59,4.97,23.09,13.52,10.67,16.59,11.97,5.21,22.37,10.45,23.3,11.75,46.3,22.21,70.55,32.39,29.59,12.42,58.28,24.58,89.04,35.35-3.28-13.48,2.02-46.37,15.9-51.01l2.07-6.96c8.3-8.95,18.71-18.54,30.96-21.62,20.99-5.28,43.83-1.33,61.32,11.62,7.43,5.5,12.51,12.2,17.98,19.79,35.08-9.04,65.94,8.26,75.85,43.4,2.64,9.35,6.84,16.84,11.95,24.89,3.77,5.93,1.58,15.41-4.78,18.18-10.04,4.37-20.63,3.32-30.93,1.05-13.63-3-25.53-8.85-35.23-19.05-.62-.65-2.24-1.69-2.93-2.05.41-3.67-4.41-2.7-8.33-13.89-2.64,21.28-21.01,40.24-41.18,48.54,32.71,28.16,51.73,67.69,56.8,110.09,3.02,25.29-1.14,53.87-22.33,70.63-13.17,10.42-30.66,15.66-47.42,13.05-24.91-3.87-47.02-15.18-67.66-28.86-4.41-2.92-5-7.15-7.32-11.08-3-5.08-6.8-9.17-5.2-16.09l2.72-11.77-26.13,10.58c-3.27,1.33-4.13,1.21-5.89,4.22l-13.98,23.93c-4.13,7.07-13.75,8.3-20.41,4.14l-9.22-5.76c3.93,12.55,11.37,22.11,19.77,31.35,6.46,7.11,7.83,16.73.11,23.65s-22.8,18.33-33.29,19.72c-.3,5.93-1.21,12.73-.93,18.68l1.21,24.98c1.4,29.07,4.7,57.08,11.12,85.47l15.46,68.36c1.45,6.41-7.16,12.58-11.88,13.69l-10.19,2.4c-2.55,18.31,41.1,21.97,55.94,36.2,6.24,5.98,8.11,15.16,3.78,22.75-2.1,3.69-7.06,6-11.4,6.42-22.99,2.24-40.02,2.04-63.21,1.42l-29.99-.81c-29.39-.79-25.89-40.34-23.81-61.43-10.3-1.07-33.91.37-34.16-15.27l-.39-24.14c-.64-40.19-7.34-78.99-12.45-119.04l-14.72-115.29-3.51-38.81-58.45-77.4c-18.57-24.59-39.05-46.39-62.05-66.95l-62.35-55.71-42.61-38.25c-5.46-4.9-8.39-12.03-4.47-18.75,12.97-22.22,27.85-42.24,43.86-62.83l-11.39-11.5c-2.98-3.01-7.95-4.49-12.21-4.83-15.14-1.21-26.16-12.06-28.95-26.91-.88-4.69-2.64-8.68-6.24-11.82-8.53-7.45-13.53-18.19-12.65-29.4,1.01-12.72,10.05-21.61,22.35-23.89,19.05-3.54,36.66,10.96,47.89,24.98l38.97,48.64c6.85-.65,11.15,2.32,15.25,6.95,17.21,19.42,35.6,37.47,51.96,56.86ZM142.46,96.05l11.63,11.42,17.52-18.22-36.84-45.99c-6.82-8.52-14.52-15.72-24.47-20.48-7.15-3.42-16.22-2.18-21.46,4.06-6.26,7.46-.71,19.78,7.47,26.85,8.95,7.74,5.53,11.44,11.12,24,6.73,15.14,21.71,5.28,35.03,18.36ZM446.8,519.82c-22.6-26.26-24.85-55.94-20.05-88.74l-11.21,12.39c-8.7,9.61-16.49,19.27-24.46,30.18-13.14-9.35-23.57-21.29-32.87-33.86-3.79-3.64-2.27-8.05.6-11.94,9.74-13.19,22.24-22.96,37.63-31.59-20.27-26.02-23.39-61.61-17.66-93.04l-10.76-10.26-25.54-26.45-15.57-16.43-13.54-14.46-14.48-15.61-53.95-59.02-59.72-66.28c-10.04,8.34-18.86,16.78-26.97,26.67-17.12,20.88-32.36,42.2-46.27,65.42l34.54,30.66,68.52,61.39,19,18.22c38.72,37.13,77.84,91.47,109.7,135.16l3.77,42.55,6.6,55.2,8.12,60.1c5.36,39.69,10.39,78.37,12.46,118.24l.51,25.82c32.81,4.98,65.96,3.71,98.82-4.71-12.74-51.53-23.69-99.77-26.68-152.79l-.74-17.67c-.26-6.2-.76-12.08-.21-18.19.62-6.96.69-13.46.43-20.96ZM360.57,208.7c3.62-7.56,5.86-15.8,7.23-24.36l-7.05-6.23c-4.08-3.61-6.75-9.13-10.68-13.17-7.15-7.34-29.4-1.71-32.52,14.3-.93,4.78,3.25,10.58,6.7,13.34,11.69,9.35,21.53,7,36.32,16.13ZM661.21,223.16c.59-6.86,2.46-11.13,6.88-15.79-11.3-26.5-39.32-40.99-67.68-33.7-9.69,2.49-17.33,8.72-24.13,15.76,11.76,7.36,23.42,12.8,36.01,18.13,15.76,6.68,31.32,12.74,48.92,15.6ZM632.04,403.57c3.51,3.61,12.17,16.89,8.3,21.79-9.64-12.98-19.93-23.06-32.96-32.29-6,24.8-21.54,38.99-42.68,53.09,19.67,13.62,40.9,24.66,64.53,28.24,14.81,2.25,30.63-3.89,40.61-14.15,13.83-14.22,15.79-36.4,13.61-54.89-3.8-32.22-16.4-62.69-37.53-87.07-4.67-5.39-8.96-10.23-14.5-13.84-17.5,10.57-47.93,21.12-67.41,26.45-5.53,1.51-10.94,1.13-17.07,1.18,4.28-13.1,8.35-18.99,12.27-32.72l6.92-24.28-6.29-8.03c-2.43-3.1-4.36-6.85-6.56-10.55-22.37-7.44-43.99-15.6-65.84-24.69l-24.87-10.35c-28.2-11.73-55.73-23.99-82.94-37.67-3.27,21.02-12.58,33.46-16.44,52.65,14.73,11.19,29.39,20.42,45.64,28.62l37.21,18.77c7.21,3.64,19.98,4.21,15.13,8.46l-9.6,8.4c-4.36,3.81-10.62,6.63-14.93,9.8,5.39,12.01,6.28,22.87,12.16,35,12.69,26.17,32.05,48.19,55.99,64.46,4.71,3.2,9.97,6.17,14.84,7.61l36.37-15.71c-10.96-11.19-19.18-23.22-10.31-38.04,5.35-8.94,12.99-16.02,23.32-19.03,5.43-1.58,10.59-.64,15.9,1.11,12.63,4.17,21.64,14.4,23.42,27.89l33.1-7.21c-4.53,11.25-12.73,17.53-24.54,21.4l15.16,15.6ZM624.45,292.89c2.42-1.66,2.88-6.15,4.45-8.08,2.62-3.22,8-4.29,11.56-6.31,12.59-7.14,22.6-17.54,26.61-31.24,1.58-5.38.8-10.39-4.26-13.19-32.89-3.38-67.84-13.81-96.14-31.72-17.47,27.61-2.71,64.27,23.95,79.84l.31,4.79c.07,1.04-2.92,2.68-3.84,2.15l-8.08-4.73-11.52,33.35,17.57-5.84c13.97-4.64,26.82-10.39,39.38-19ZM752.14,267.41c-15.49-19.46-10.63-34.16-26.79-51.75-12.54-11.18-29.54-15.71-45.64-10.78,3.56,2.31,7.58,4.41,9.99,7.29,5.02,6,4.35,14.24.71,20.45,6.06,25.5,38.82,40.76,61.72,34.79ZM676.16,232.41c5.93.91,10.4-3.88,10.59-9.08s-3.04-10.21-8.73-10.39c-2.51-.08-5.78.63-7.52,2.07-1.43,1.2-2.45,4.58-2.63,6.86-.45,5.53,2.4,9.63,8.29,10.54ZM461.58,517.54c8.63-4.54,17.23-10.19,24.66-17.32-9.11-10.8-17.81-20.67-23.09-33.41-6.69-16.13-6.91-34.04-3.58-50.87.63-3.17,4.34-5.61,6.69-4.97,2.06.57,5.01,3.55,5.02,5.96l.07,19.72,19.82,15.81,15.17-25.58c-14.92-8.62-28.34-18.93-40.25-30.79l-7.18-7.15c-19.59-19.51-32.22-44.46-34.23-72.2l-33.1-8.92-1.02,10.87c-2.38,25.39,4.8,50.39,19.07,71.33,9.58-3.62,18.04-7.75,27.6-8.7,2.1-.21,5.53,3.41,5.5,5.23s-2.53,4.65-4.81,5.46c-19.31,6.91-37.32,15.75-53.16,28.66-3.61,2.94-11.82,11.12-12.34,13.93-.22,1.18,1.54,3.54,2.49,4.5l16.04,16.19c11.04-14.11,23.1-25.68,36.69-36.56l22.02-17.62c2.52,11.49-5.96,9.51-10.13,26.43-8.02,32.55-1.42,65.3,22.03,90ZM566.88,410.81c-3.75,8.55-6.63,15.91-7.87,25.35,15.6-8.52,27.92-20.55,34.62-36.35,2.19-5.18,1.87-9.74,1.97-14.8.16-8.17,1.78-17.22-5.47-23.05-4.56-3.66-10.72-8.24-17.15-6.69-7.15,1.73-13.75,7.91-17.32,14.22-3.06,5.4.07,11.82,3.94,16.05,5.34,5.86,25.64,25.08,14.48,30.5l-7.18-5.23ZM474,455.5c0-.28-.22-.5-.5-.5s-.5.22-.5.5.22.5.5.5.5-.22.5-.5ZM514.37,797.12c.17-14.06-29.59-14.48-53.01-31.31-6.57-4.72-9.13-11.69-9.46-19.69-14.38,1.96-27.91,2.34-42.29,1.59-1.29,10.73-7.22,54.55,13.35,50.06l27.04.9c15.09.5,29.93.99,44.82-.1l19.54-1.43Z"/>
  <path class="st1" d="M689.09,258.82c58.14,101.51,59.8,224.65-2.71,326.28-44.14,71.76-116.96,124.99-199.42,143.68l-15.46-68.36c-6.42-28.4-9.71-56.4-11.12-85.47l-1.21-24.98c-.29-5.95.63-12.75.93-18.68,10.49-1.4,25.8-13.01,33.29-19.72s6.34-16.54-.11-23.65c-8.4-9.24-15.84-18.8-19.77-31.35l9.22,5.76c6.66,4.16,16.28,2.93,20.41-4.14l13.98-23.93c1.76-3.01,2.62-2.89,5.89-4.22l26.13-10.58-2.72,11.77c-1.6,6.92,2.21,11.01,5.2,16.09,2.32,3.93,2.9,8.16,7.32,11.08,20.64,13.68,42.75,24.99,67.66,28.86,16.76,2.61,34.25-2.64,47.42-13.05,21.19-16.76,25.35-45.34,22.33-70.63-5.06-42.4-24.09-81.93-56.8-110.09,20.18-8.3,38.54-27.26,41.18-48.54,3.92,11.18,8.74,10.22,8.33,13.89Z"/>
  <path class="st1" d="M595.85,160.99c-12.25,3.08-22.65,12.68-30.96,21.62l-2.07,6.96c-13.88,4.64-19.18,37.52-15.9,51.01-30.76-10.77-59.45-22.93-89.04-35.35-24.25-10.18-47.25-20.63-70.55-32.39-10.4-5.25-11.69,6.13-22.37-10.45-5.5-8.56-12.76-13.1-23.09-13.52-17.67-.73-34.85,11.19-37.49,29.4-.91,6.28,2.27,13.53,5.89,18.37,12.31,16.48,27.95,14.01,43.67,23.41l-3.14,11.79c-2.03,7.62,1.64,13.53,7.77,17.74,7.37,5.07,14.41,10.09,22.21,14.74,18.31,10.91,36.84,20.38,56.51,29.9l-12.66,9.02c-12.58-2.41-22.7-7.14-35.3-8.71-4.03-2.55-8.49-7.28-11.95-10.83l-24.64-25.32-15.53-16.39-11.28-12.03-62.24-67.58-13.79-16.35c105.15-62.37,246.58-56.4,345.96,14.96Z"/>
  <path class="st0" d="M446.8,519.82c.26,7.51.19,14.01-.43,20.96-.54,6.11-.04,11.98.21,18.19l.74,17.67c2.99,53.02,13.93,101.26,26.68,152.79-32.86,8.43-66.01,9.69-98.82,4.71l-.51-25.82c-2.07-39.87-7.09-78.55-12.46-118.24l-8.12-60.1-6.6-55.2-3.77-42.55c-31.85-43.69-70.98-98.03-109.7-135.16l-19-18.22-68.52-61.39-34.54-30.66c13.9-23.22,29.15-44.54,46.27-65.42,8.11-9.89,16.93-18.33,26.97-26.67l59.72,66.28,53.95,59.02,14.48,15.61,13.54,14.46,15.57,16.43,25.54,26.45,10.76,10.26c-5.73,31.43-2.61,67.02,17.66,93.04-15.38,8.64-27.89,18.4-37.63,31.59-2.87,3.89-4.4,8.29-.6,11.94,9.3,12.56,19.73,24.51,32.87,33.86,7.98-10.91,15.77-20.57,24.46-30.18l11.21-12.39c-4.8,32.79-2.55,62.48,20.05,88.74Z"/>
  <path class="st0" d="M632.04,403.57l-15.16-15.6c11.81-3.87,20.01-10.15,24.54-21.4l-33.1,7.21c-1.77-13.48-10.79-23.72-23.42-27.89-5.3-1.75-10.46-2.69-15.9-1.11-10.33,3.01-17.97,10.09-23.32,19.03-8.87,14.82-.65,26.84,10.31,38.04l-36.37,15.71c-4.87-1.44-10.13-4.41-14.84-7.61-23.94-16.27-43.3-38.3-55.99-64.46-5.88-12.13-6.77-22.98-12.16-35,4.31-3.17,10.57-5.99,14.93-9.8l9.6-8.4c4.85-4.25-7.92-4.82-15.13-8.46l-37.21-18.77c-16.25-8.2-30.91-17.43-45.64-28.62,3.86-19.18,13.17-31.63,16.44-52.65,27.21,13.67,54.74,25.93,82.94,37.67l24.87,10.35c21.84,9.09,43.46,17.25,65.84,24.69,2.2,3.7,4.12,7.45,6.56,10.55l6.29,8.03-6.92,24.28c-3.91,13.73-7.98,19.62-12.27,32.72,6.13-.05,11.53.33,17.07-1.18,19.48-5.32,49.91-15.88,67.41-26.45,5.54,3.61,9.83,8.45,14.5,13.84,21.13,24.37,33.73,54.85,37.53,87.07,2.18,18.5.22,40.68-13.61,54.89-9.98,10.25-25.8,16.4-40.61,14.15-23.63-3.59-44.86-14.63-64.53-28.24,21.14-14.1,36.67-28.29,42.68-53.09,13.03,9.23,23.33,19.31,32.96,32.29,3.88-4.91-4.79-18.18-8.3-21.79Z"/>
  <path class="st0" d="M461.58,517.54c-23.45-24.7-30.05-57.44-22.03-90,4.17-16.93,12.65-14.94,10.13-26.43l-22.02,17.62c-13.59,10.88-25.65,22.45-36.69,36.56l-16.04-16.19c-.95-.96-2.71-3.32-2.49-4.5.52-2.81,8.73-10.98,12.34-13.93,15.84-12.91,33.84-21.76,53.16-28.66,2.28-.82,4.78-3.6,4.81-5.46s-3.4-5.44-5.5-5.23c-9.56.95-18.02,5.08-27.6,8.7-14.27-20.94-21.46-45.94-19.07-71.33l1.02-10.87,33.1,8.92c2.01,27.74,14.64,52.69,34.23,72.2l7.18,7.15c11.91,11.86,25.33,22.17,40.25,30.79l-15.17,25.58-19.82-15.81-.07-19.72c0-2.41-2.96-5.39-5.02-5.96-2.35-.65-6.07,1.8-6.69,4.97-3.33,16.82-3.11,34.74,3.58,50.87,5.29,12.74,13.99,22.62,23.09,33.41-7.43,7.12-16.04,12.78-24.66,17.32Z"/>
  <path class="st0" d="M624.45,292.89c-12.56,8.6-25.41,14.35-39.38,19l-17.57,5.84,11.52-33.35,8.08,4.73c.91.53,3.9-1.11,3.84-2.15l-.31-4.79c-26.66-15.57-41.42-52.23-23.95-79.84,28.3,17.91,63.24,28.34,96.14,31.72,5.06,2.8,5.84,7.81,4.26,13.19-4.01,13.7-14.02,24.1-26.61,31.24-3.56,2.02-8.94,3.09-11.56,6.31-1.57,1.93-2.03,6.43-4.45,8.08Z"/>
  <path class="st0" d="M514.37,797.12l-19.54,1.43c-14.89,1.09-29.74.61-44.82.1l-27.04-.9c-20.57,4.5-14.64-39.33-13.35-50.06,14.39.75,27.92.38,42.29-1.59.33,8.01,2.89,14.97,9.46,19.69,23.42,16.83,53.18,17.25,53.01,31.31Z"/>
  <path class="st0" d="M142.46,96.05c-13.32-13.08-28.3-3.22-35.03-18.36-5.59-12.56-2.17-16.26-11.12-24-8.18-7.07-13.73-19.39-7.47-26.85,5.24-6.24,14.31-7.48,21.46-4.06,9.95,4.76,17.65,11.96,24.47,20.48l36.84,45.99-17.52,18.22-11.63-11.42Z"/>
  <path class="st0" d="M661.21,223.16c-17.61-2.86-33.17-8.92-48.92-15.6-12.59-5.34-24.25-10.77-36.01-18.13,6.8-7.04,14.44-13.27,24.13-15.76,28.36-7.29,56.38,7.2,67.68,33.7-4.41,4.66-6.29,8.93-6.88,15.79Z"/>
  <path class="st0" d="M752.14,267.41c-22.91,5.97-55.66-9.29-61.72-34.79,3.64-6.21,4.31-14.45-.71-20.45-2.41-2.88-6.43-4.98-9.99-7.29,16.09-4.93,33.09-.4,45.64,10.78,16.16,17.59,11.3,32.29,26.79,51.75Z"/>
  <path class="st0" d="M566.88,410.81l7.18,5.23c11.16-5.42-9.14-24.64-14.48-30.5-3.86-4.24-6.99-10.65-3.94-16.05,3.57-6.31,10.17-12.49,17.32-14.22,6.44-1.56,12.59,3.02,17.15,6.69,7.25,5.82,5.63,14.88,5.47,23.05-.1,5.05.23,9.62-1.97,14.8-6.7,15.81-19.02,27.83-34.62,36.35,1.24-9.43,4.12-16.79,7.87-25.35Z"/>
  <path class="st0" d="M360.57,208.7c-14.79-9.13-24.63-6.78-36.32-16.13-3.45-2.76-7.63-8.56-6.7-13.34,3.12-16.01,25.37-21.64,32.52-14.3,3.94,4.04,6.6,9.56,10.68,13.17l7.05,6.23c-1.38,8.56-3.61,16.8-7.23,24.36Z"/>
  <path class="st0" d="M676.16,232.41c-5.89-.91-8.73-5.01-8.29-10.54.18-2.29,1.2-5.67,2.63-6.86,1.73-1.45,5-2.16,7.52-2.07,5.69.19,8.91,5.44,8.73,10.39-.19,5.2-4.66,10-10.59,9.08Z"/>
  <circle class="st1" cx="473.5" cy="455.5" r=".5"/>
</svg>